<svg width="93" height="49" viewBox="0 0 93 49" fill="none" xmlns="http://www.w3.org/2000/svg">
<g filter="url(#filter0_d)">
<path d="M4 41L46.5 0L89 41H4ZM75.1751 40.3828H87.1745L81.1793 34.6113L75.1751 40.3828ZM61.3062 40.3828H73.3056L67.3104 34.6113L61.3062 40.3828ZM47.4353 40.3828H59.4367L53.4345 34.6113L47.4353 40.3828ZM33.5404 40.3828H45.5907L39.5656 34.6113L33.5404 40.3828ZM19.6015 40.3828H31.6019L25.6067 34.6113L19.6015 40.3828ZM5.81255 40.3828H17.9129L11.9177 34.6133L5.81255 40.3828ZM40.1691 34.0261L46.449 40.1854L52.783 34.0789L46.453 27.9574L40.1691 34.0261ZM68.2966 33.6402C68.2053 33.7189 68.1456 33.8278 68.1285 33.9469C68.1115 34.066 68.1381 34.1873 68.2036 34.2883V34.4159L68.2946 34.4648L72.9339 39.018L74.2978 40.1695L80.6167 34.0779L74.4307 28.1249H74.0679L68.2966 33.6402ZM26.2962 34.0281L32.6281 40.1326L38.958 34.0281L32.6281 27.9056L26.2962 34.0281ZM54.033 34.0281L60.4618 40.1306L66.7918 34.0281L60.4618 27.9076L54.033 34.0281ZM12.4273 34.0281L18.7552 40.1306L19.1998 39.7119L24.6285 34.4817C24.6998 34.4276 24.7576 34.3578 24.7975 34.2777C24.8373 34.1977 24.8582 34.1095 24.8583 34.0201C24.8567 33.9246 24.8327 33.8308 24.7881 33.7463C24.7435 33.6618 24.6796 33.5889 24.6015 33.5336C23.5264 32.5216 22.4502 31.4738 21.3711 30.427L19.7584 28.8677L18.7592 27.9056L12.4273 34.0281ZM19.3617 27.3393L25.7886 33.5296L25.9834 33.1866L31.6349 27.7261C31.7182 27.6504 31.7734 27.5489 31.7915 27.4379C31.8096 27.327 31.7897 27.2132 31.7348 27.115V26.9854L31.6349 26.8996L26.1393 21.6555C26.0482 21.5616 25.945 21.4802 25.8325 21.4132L25.6327 21.2926L19.3617 27.3393ZM47.699 26.9844C47.6423 27.0277 47.5948 27.082 47.5595 27.144C47.5241 27.206 47.5016 27.2744 47.4932 27.3453C47.4921 27.4283 47.5084 27.5106 47.5409 27.587C47.5734 27.6633 47.6215 27.7321 47.6821 27.7889L52.8949 32.8506C53.0288 32.9962 53.1946 33.1547 53.3945 33.3292L53.6063 33.5216L59.9323 27.423L53.1996 20.9785V21.6844L47.699 26.9844ZM61.0653 27.3832L67.3973 33.4897L73.7272 27.3832L67.3973 21.2786L61.0653 27.3832ZM33.2316 27.3832L39.5556 33.4817L40.0691 33.0241L40.8975 32.2345C42.3763 30.8268 43.9061 29.3721 45.4159 27.8478C45.4897 27.7976 45.5505 27.7307 45.5934 27.6525C45.6363 27.5744 45.66 27.4872 45.6627 27.3981C45.6649 27.302 45.6442 27.2066 45.6024 27.12C45.5605 27.0333 45.4987 26.9578 45.4219 26.8996C43.7002 25.2586 42.0516 23.6844 40.4259 22.0922L39.5586 21.2836L33.2316 27.3832ZM26.2972 20.6465L32.6291 26.7491L38.959 20.6465L32.6291 14.5221L26.2972 20.6465ZM40.1681 20.6465L46.452 26.7361L52.782 20.6316L46.498 14.5251L40.1681 20.6465ZM54.037 20.6465L60.3689 26.7341L66.6988 20.6276L60.3669 14.54L54.037 20.6465ZM53.2436 8.07857C53.2251 8.10788 53.2014 8.13355 53.1737 8.15433C51.3171 9.97283 49.4636 11.7714 47.5861 13.551C47.5031 13.624 47.4475 13.723 47.4284 13.8317C47.4093 13.9404 47.4279 14.0524 47.4812 14.1492V14.2788L47.5811 14.3715L53.0078 19.6157L53.4874 20.0284L59.8064 13.9528L53.4454 7.75654L53.2436 8.07857ZM33.2306 13.9428L39.5476 20.0324L39.9472 19.7084L45.5098 14.3486C45.6001 14.269 45.6595 14.1604 45.6777 14.0416C45.696 13.9229 45.6719 13.8015 45.6097 13.6986V13.5689L45.5098 13.4892L39.6385 7.85923L33.2306 13.9428ZM40.5558 6.91905C40.4665 7.01021 40.4151 7.13162 40.4118 7.25899C40.4085 7.38636 40.4535 7.51031 40.5378 7.606L46.452 13.2938L52.784 7.18725L46.6679 1.32099H46.3042L40.5558 6.91905Z" fill="#9D8665"/>
</g>
<defs>
<filter id="filter0_d" x="0" y="0" width="93" height="49" filterUnits="userSpaceOnUse" color-interpolation-filters="sRGB">
<feFlood flood-opacity="0" result="BackgroundImageFix"/>
<feColorMatrix in="SourceAlpha" type="matrix" values="0 0 0 0 0 0 0 0 0 0 0 0 0 0 0 0 0 0 127 0" result="hardAlpha"/>
<feOffset dy="4"/>
<feGaussianBlur stdDeviation="2"/>
<feComposite in2="hardAlpha" operator="out"/>
<feColorMatrix type="matrix" values="0 0 0 0 0 0 0 0 0 0 0 0 0 0 0 0 0 0 0.25 0"/>
<feBlend mode="normal" in2="BackgroundImageFix" result="effect1_dropShadow"/>
<feBlend mode="normal" in="SourceGraphic" in2="effect1_dropShadow" result="shape"/>
</filter>
</defs>
</svg>
