<svg width="46" height="38" viewBox="0 0 46 38" fill="none" xmlns="http://www.w3.org/2000/svg">
<g filter="url(#filter0_d)">
<path d="M21.86 0L7.63 10.42V19.07L21.86 29.49C21.83 7.26 21.86 18.17 21.86 0Z" fill="#B3B3B3"/>
<path d="M4 21.9198H11.47V7.55981H4V21.9198Z" fill="#B3B3B3"/>
<path d="M31 29.1399C30.6559 29.1407 30.3193 29.0395 30.0328 28.849C29.7462 28.6586 29.5225 28.3874 29.39 28.0699C29.2993 27.8572 29.2514 27.6286 29.249 27.3974C29.2467 27.1661 29.2899 26.9367 29.3763 26.7221C29.4627 26.5076 29.5905 26.3122 29.7524 26.1471C29.9143 25.982 30.1072 25.8504 30.32 25.7599C31.7344 25.1603 33.0184 24.2907 34.1 23.1999C36.3328 20.9541 37.5873 17.9167 37.59 14.7499C37.5793 11.5788 36.3138 8.5408 34.07 6.29988C32.9863 5.20894 31.7031 4.33644 30.29 3.72988C29.8627 3.547 29.5251 3.20251 29.3509 2.7716C29.1766 2.3407 29.1799 1.85837 29.36 1.42988C29.4463 1.21604 29.5746 1.02173 29.7375 0.858495C29.9003 0.695259 30.0943 0.566432 30.308 0.479673C30.5216 0.392914 30.7505 0.349995 30.9811 0.353466C31.2116 0.356938 31.4391 0.406729 31.65 0.49988C35.3419 2.07523 38.2782 5.02222 39.84 8.71988C40.6452 10.6177 41.0601 12.6583 41.06 14.7199C41.059 16.7804 40.6477 18.82 39.85 20.7199C39.077 22.5565 37.9526 24.2244 36.54 25.6299C35.1475 27.0638 33.4858 28.209 31.65 28.9999C31.4453 29.0907 31.224 29.1384 31 29.1399Z" fill="#B3B3B3"/>
<path d="M27.69 22.0801C27.3094 22.0796 26.9406 21.9476 26.6462 21.7064C26.3518 21.4652 26.1499 21.1297 26.0746 20.7566C25.9992 20.3835 26.0551 19.9959 26.2329 19.6594C26.4106 19.3229 26.6993 19.0581 27.0499 18.9101C27.8655 18.5635 28.5605 17.9838 29.048 17.2438C29.5354 16.5037 29.7936 15.6362 29.79 14.7501C29.7935 14.149 29.6744 13.5535 29.44 13.0001C29.2031 12.4627 28.8634 11.9769 28.44 11.5701C28.0312 11.1489 27.5458 10.8095 27.01 10.5701C26.6564 10.3727 26.3883 10.0515 26.2574 9.66825C26.1264 9.28504 26.1418 8.86693 26.3008 8.49445C26.4597 8.12197 26.7508 7.82146 27.118 7.6508C27.4853 7.48013 27.9028 7.45138 28.29 7.57008C29.4625 8.07189 30.495 8.8522 31.2977 9.84332C32.1005 10.8344 32.6493 12.0064 32.8966 13.2577C33.1439 14.5089 33.0822 15.8016 32.7168 17.0235C32.3515 18.2455 31.6934 19.3599 30.7999 20.2701C30.0941 20.9834 29.2548 21.5508 28.3299 21.9401C28.1281 22.0293 27.9106 22.0769 27.69 22.0801Z" fill="#B3B3B3"/>
</g>
<defs>
<filter id="filter0_d" x="0" y="0" width="46" height="38" filterUnits="userSpaceOnUse" color-interpolation-filters="sRGB">
<feFlood flood-opacity="0" result="BackgroundImageFix"/>
<feColorMatrix in="SourceAlpha" type="matrix" values="0 0 0 0 0 0 0 0 0 0 0 0 0 0 0 0 0 0 127 0" result="hardAlpha"/>
<feOffset dy="4"/>
<feGaussianBlur stdDeviation="2"/>
<feComposite in2="hardAlpha" operator="out"/>
<feColorMatrix type="matrix" values="0 0 0 0 0 0 0 0 0 0 0 0 0 0 0 0 0 0 0.25 0"/>
<feBlend mode="normal" in2="BackgroundImageFix" result="effect1_dropShadow"/>
<feBlend mode="normal" in="SourceGraphic" in2="effect1_dropShadow" result="shape"/>
</filter>
</defs>
</svg>
